<svg id="Layer_1" data-name="Layer 1" xmlns="http://www.w3.org/2000/svg" viewBox="0 0 930.25 265.46"><defs><style>.cls-1{fill:#fff;}</style></defs><title>Design</title><path d="M290.39,565.24,256,582.13l-20.89,10.26-5.54-26-8-34.75L243,542a91.63,91.63,0,0,0-50.1-115.55l13.24-27.6a122.24,122.24,0,0,1,64.47,156.57Z" transform="translate(-34.88 -367.27)"/><path d="M189.27,401.09l-21.12,18.64-25.4,23-1.58-22.28A91.55,91.55,0,0,0,66,520.9L35.61,524a118.25,118.25,0,0,1-.73-13.37A122.1,122.1,0,0,1,139,389.82l-1.59-22.55,33.82,22Z" transform="translate(-34.88 -367.27)"/><path d="M206.12,587.83S189.7,574.15,176,548.45c0,0-22-41.9-16-50,0,0-1,5.76,4.24,13.57s11.37,9,20.53,7.46,12.72-4.41,22.9-3.73,15.78,9.67,15.78,9.67l14.76-21.88L175.37,458l10.35-16.11s-23.24,5.76-32.23,10.51c0,0-33.25-6.53-50.3,28.33-6.19,12.66-5.06,27.76-1.81,41.07,3.44,14,8.44,28.09,3.16,42.48-2.08,5.69-6.38,9.1-11.85,11.36-2-2-4-4.1-5.84-6.3l14.56-16L72,544.52,46.1,536.75l-1.23,22.32-2.15,39.09,18.64-11.62a122.12,122.12,0,0,0,168.62,22A161.88,161.88,0,0,1,206.12,587.83Z" transform="translate(-34.88 -367.27)"/><rect x="296.82" y="225.12" width="156.49" height="4.92"/><rect x="769.66" y="225.12" width="156.49" height="4.92"/><path d="M763.34,471.6V441.07h.73a1.31,1.31,0,0,0,1.31-1.31v-4.68a1.31,1.31,0,0,0-1.31-1.31H745.14a1.31,1.31,0,0,0-1.31,1.31v4.68a1.31,1.31,0,0,0,1.31,1.31h.73V471.6s-9.67,4.58-16,11.37v66.84s3.38,6.58,24.6,7.12h.17c21.22-.54,24.6-7.12,24.6-7.12V483C773,476.18,763.34,471.6,763.34,471.6Zm-13.7,4.46-13.48,7.76-.89,62.72-2.69-51.19V484c5.85-5.91,14.34-10,14.43-10l1.52-.73V441.36l-.95-3.15,1.94,3.15.76,31.39,10.31,2.16Z" transform="translate(-34.88 -367.27)"/><circle cx="468.99" cy="148.48" r="46.06"/><path class="cls-1" d="M514.73,544.74v5.59a.2.2,0,0,1-.36.1l-7.56-12.55a3.5,3.5,0,0,1,0-3.59l7.56-12.71a.19.19,0,0,1,.36.1v5.58h11.36L518,511.75a2,2,0,0,1,.72-2.57l10.51-6.36a2,2,0,0,1,2.68.65L538,513.53a9.25,9.25,0,0,1,.25,9.28l-9.95,18.32A5.41,5.41,0,0,1,524,544Z" transform="translate(-34.88 -367.27)"/><path class="cls-1" d="M525.5,491.9l5-2.56a.19.19,0,0,1,.25.27L523,502.07a3.5,3.5,0,0,1-3.18,1.66l-14.76-.91a.19.19,0,0,1-.08-.36l5-2.56-5.21-10.1L494.7,504.13a2,2,0,0,1-2.62.54l-10.46-6.43a1.94,1.94,0,0,1-.65-2.67l6.11-10.11a9.28,9.28,0,0,1,8.14-4.47l20.84.45a5.43,5.43,0,0,1,4.5,2.56Z" transform="translate(-34.88 -367.27)"/><path class="cls-1" d="M473.24,508.24l-4.82-2.84a.19.19,0,0,1,.09-.35l14.65-.16a3.49,3.49,0,0,1,3.1,1.8l7.13,13a.19.19,0,0,1-.26.26l-4.82-2.83-5.76,9.8,17.5.83a2,2,0,0,1,1.86,1.93l.16,12.28a2,2,0,0,1-1.91,2l-11.82.24a9.26,9.26,0,0,1-8.12-4.48L469.45,521.8a5.45,5.45,0,0,1-.24-5.17Z" transform="translate(-34.88 -367.27)"/><path d="M365.28,557.47a17,17,0,0,1-9.26-2.53,14.28,14.28,0,0,1-7.48,2.53,22.16,22.16,0,0,1-5.66-.59,14.42,14.42,0,0,1-3.88-1.62q-3.4-2.06-3.41-5.15a4.51,4.51,0,0,1,.88-2.77,7,7,0,0,0,4.43,1.35q7,0,9.74-6V504a8.66,8.66,0,0,0-1.51-5.46q-2.37-3.09-8.15-5.86c3.53-1.63,5.86-3.06,7-4.27a10.22,10.22,0,0,0,2.7-6.89v-33.4q-2.7-6.1-9.74-6.1a7,7,0,0,0-4.43,1.35,4.48,4.48,0,0,1-.88-2.73,5,5,0,0,1,.92-2.89,7.59,7.59,0,0,1,2.49-2.3,15.72,15.72,0,0,1,8.35-2.22,15.37,15.37,0,0,1,8.67,2.62,16.69,16.69,0,0,1,9.18-2.62,16.27,16.27,0,0,1,9.66,2.93,44.59,44.59,0,0,1,17.49-3.72,68.9,68.9,0,0,1,15.87,1.7,53.94,53.94,0,0,1,12.95,4.79q12.58,6.66,15.67,17.26a13.8,13.8,0,0,0,7.52,8.71Q438,469.29,436.44,475,433.13,487.5,423,491.3q14.88,4.11,19.39,19.47,1.59,5.46,7.52,8.94a16.84,16.84,0,0,0-8.15,10.3,30.6,30.6,0,0,1-7.25,12.38,44.6,44.6,0,0,1-12.07,9.07,64.83,64.83,0,0,1-30,6.81,42.52,42.52,0,0,1-17.81-3.57A16.31,16.31,0,0,1,365.28,557.47Zm-7-22.56q4-1.5,4.36-10.37t.47-24.54q0-15.67,0-20.85c0-3.46-.06-6.24-.12-8.36q-.22-9.33-1.78-11.28a8.8,8.8,0,0,0-2.89-2.57q0,27.56-1,31.35-1.11,3.16-5.38,4.51c3.17,1.11,5,2.45,5.38,4q1,3.8,1,27.78Zm36.34-47.41q7,0,9.89-3.33,3.09-3.41,3.09-11.71V454.17q0-4.83-5.07-8.15a15.14,15.14,0,0,0-8.19-2.93,17.62,17.62,0,0,0-6.17.91,15.14,15.14,0,0,0-4.32,2.49,10,10,0,0,0-4,8v33Zm-14.8,47.73a11.39,11.39,0,0,0,4.19,9.1,14.69,14.69,0,0,0,9.66,3.33,16.67,16.67,0,0,0,9.18-2.38q7.13-4.66,7.13-10.68V511.4q0-7.2-4.67-10.84-4-3.09-10.37-3.09H379.77Zm32.29-90.32q2.7,6,2.69,17.57,0,17-2.21,22.09,3.31-.63,5.62-6.41a22.89,22.89,0,0,0,1.3-4.52c.29-1.58.53-2.81.72-3.68a7.37,7.37,0,0,1,.83-2.25,7.47,7.47,0,0,1,4.27-3q-3.16-1-4-2.22a12.07,12.07,0,0,1-1.66-4.91,32,32,0,0,0-1.5-5.81,16.49,16.49,0,0,0-1.9-3.68Q414.28,445.23,412.06,444.91Zm3.17,55q1.9,4.27,1.9,19.79,0,19.63-1.43,23,1.67-.32,3.41-4a30.81,30.81,0,0,0,2.45-7.68c.48-2.63.81-4.43,1-5.38a10,10,0,0,1,.83-2.53,7.29,7.29,0,0,1,4.28-3.41,7.43,7.43,0,0,1-5.58-6,59.27,59.27,0,0,0-1.63-7,18.25,18.25,0,0,0-1.66-3.88A5.55,5.55,0,0,0,415.23,499.92Z" transform="translate(-34.88 -367.27)"/><path d="M626.74,544.29a10.76,10.76,0,0,0,2.37-3.95,14.84,14.84,0,0,0,.87-5.07,33.27,33.27,0,0,0-.32-4.87c.37-.79,1.38-1.41,3-1.86a15.79,15.79,0,0,1,3.25-.67,5.92,5.92,0,0,1,4.83,2.25,9.74,9.74,0,0,1,1.82,6.26,15.07,15.07,0,0,1-2.34,7.87,24.93,24.93,0,0,1-6.21,6.89,31.74,31.74,0,0,1-20.11,6.73q-21.84,0-29-16.54-2.61-6.11-2.61-15.28v-9.66q0-3.72-8.16-7.84,8.16-4.67,8.16-12.58v-9.34q0-9-7.36-9a7,7,0,0,0-4.44,1.35,5.21,5.21,0,0,1-1.11-3.13,12.11,12.11,0,0,1,.6-3.56,8.66,8.66,0,0,1,2.1-3.52q3.79-4.12,11.79-2.85v-2.54a25.87,25.87,0,0,1,4.2-14.64q3.72-5.7,6.61-5.7a5.41,5.41,0,0,1,4.47,2q1.35-6.25,3.56-9a7.66,7.66,0,0,1,6.33-2.77v33h25.73a10.29,10.29,0,0,1,.63,4.24,5.71,5.71,0,0,1-2.29,4.75,8.76,8.76,0,0,1-5.54,1.78H609.08v53.59q0,13.77,6.26,16.15a11.89,11.89,0,0,0,3.92.63,11.08,11.08,0,0,0,4-.75A9.63,9.63,0,0,0,626.74,544.29Zm-36.81-9.38q3.72-2.37,4.19-9.89.32-5.38.36-8.39c0-2,0-3.63.08-4.87s0-2.2,0-2.89V505.7c0-1.53,0-3.49,0-5.89s-.06-5-.08-7.84-.09-5.53-.2-8.11a86.63,86.63,0,0,0-.71-11.4q-1-4.59-3.64-6.34v24.7q0,11-.36,11.64A6.52,6.52,0,0,0,589,504c-.48,1.59-2.27,2.9-5.39,4,3.17,1.11,5,2.45,5.39,4q.94,3.8.95,17.81Z" transform="translate(-34.88 -367.27)"/><path d="M702.45,544.29a10.76,10.76,0,0,0,2.37-3.95,14.84,14.84,0,0,0,.87-5.07,34.79,34.79,0,0,0-.31-4.87q.55-1.18,3-1.86a15.79,15.79,0,0,1,3.25-.67,5.91,5.91,0,0,1,4.83,2.25,9.74,9.74,0,0,1,1.82,6.26,15.07,15.07,0,0,1-2.34,7.87,24.77,24.77,0,0,1-6.21,6.89,31.72,31.72,0,0,1-20.11,6.73q-21.84,0-29-16.54Q658,535.22,658,526.05v-9.66q0-3.72-8.15-7.84Q658,503.89,658,496v-9.34q0-9-7.36-9a7,7,0,0,0-4.44,1.35,5.19,5.19,0,0,1-1.1-3.13,12.08,12.08,0,0,1,.59-3.56,8.66,8.66,0,0,1,2.1-3.52q3.79-4.12,11.79-2.85v-2.54a25.87,25.87,0,0,1,4.2-14.64q3.72-5.7,6.61-5.7a5.41,5.41,0,0,1,4.47,2q1.35-6.25,3.56-9a7.67,7.67,0,0,1,6.34-2.77v33h25.72a10.26,10.26,0,0,1,.64,4.24,5.72,5.72,0,0,1-2.3,4.75,8.76,8.76,0,0,1-5.54,1.78H684.8v53.59q0,13.77,6.25,16.15a11.89,11.89,0,0,0,3.92.63,11,11,0,0,0,4-.75A9.63,9.63,0,0,0,702.45,544.29Zm-36.81-9.38q3.72-2.37,4.19-9.89.31-5.38.36-8.39c0-2,0-3.63.08-4.87s0-2.2,0-2.89V505.7c0-1.53,0-3.49,0-5.89s0-5-.08-7.84-.09-5.53-.2-8.11q-.24-9.35-.71-11.4c-.63-3.06-1.85-5.17-3.64-6.34v24.7q0,11-.36,11.64a7,7,0,0,0-.59,1.5c-.48,1.59-2.27,2.9-5.38,4,3.16,1.11,5,2.45,5.38,4q.94,3.8.95,17.81Z" transform="translate(-34.88 -367.27)"/><path d="M859.41,532q1.74-3.32,6.41-3.32a5.57,5.57,0,0,1,4.91,2.61,8.64,8.64,0,0,1,1.43,5,13.34,13.34,0,0,1-1.51,6,19.42,19.42,0,0,1-4.11,5.46,31.56,31.56,0,0,1-6,4.35,40.85,40.85,0,0,1-7.16,3.17,51.34,51.34,0,0,1-16.31,2.61,44.38,44.38,0,0,1-15.87-2.81,37.25,37.25,0,0,1-12.71-7.88q-10.37-10-12.66-27.39a12.38,12.38,0,0,0-1.82-5.54,23.46,23.46,0,0,0-7.84-5.62,14.9,14.9,0,0,0,8.79-9.89,37.76,37.76,0,0,0,.87-3.8q2-13.94,14.09-23.75a40.57,40.57,0,0,1,26.2-9.5,36.27,36.27,0,0,1,26,10.61,35.71,35.71,0,0,1,11.4,26.83c0,.37,0,.74,0,1.11a4.34,4.34,0,0,0,0,1,1.34,1.34,0,0,0,1.27,1.19,6.18,6.18,0,0,1,1.42,3.88c0,3.16-1.69,5-5.06,5.62q-1.28.24-4,.63l-44.65,7.12v7.6q0,9.2,5.54,14.57A18.07,18.07,0,0,0,841.36,547q8.48,0,13.62-3.48a10.13,10.13,0,0,0,4.83-8.71A12.16,12.16,0,0,0,859.41,532Zm-49.71,2.93a2.5,2.5,0,0,0,1.11-2,17.91,17.91,0,0,0-.72-4.43q-3.24-12.42-3.24-17.29a67.6,67.6,0,0,1,.32-7.6q.32-2.73.87-5.51.94-5.37,2.05-9.5a17.45,17.45,0,0,0,.72-3.64,3.31,3.31,0,0,0-1.11-2.77,26.85,26.85,0,0,0-5.07,10.61q-1.74,6.65-2.85,11.72-.39,2.13-4.67,4.11,4.27,2,4.67,4,2.93,13.38,4.83,17A47.79,47.79,0,0,0,809.7,534.91Zm35.86-28.49V484.25q0-5.22-2.06-7.68-3.64-4.19-7.2-4.19a14.34,14.34,0,0,0-5.94,1.07,10.62,10.62,0,0,0-4.12,3.36q-3.63,4.83-3.64,15v18.29Zm11.71-2V502q0-14.72-2.45-17.81a7.39,7.39,0,0,0-2.45-2v23Z" transform="translate(-34.88 -367.27)"/><path d="M907.58,554q-5.39,5.14-10.37,5.15a3.85,3.85,0,0,1-3.8-2.06,5.28,5.28,0,0,0,1.82-3.64,5.54,5.54,0,0,0-.56-2.77l-1-1.82,1.27,2.37a6.09,6.09,0,0,1-2.93-2.93,11.09,11.09,0,0,1-1-5q0-3,3.33-6.77a8.25,8.25,0,0,1-1.59-4.91,9.85,9.85,0,0,1,.91-4.47,12.72,12.72,0,0,1,2.34-3.21,9.69,9.69,0,0,1,6.73-3,3.71,3.71,0,0,1,3.4,1.66c-1.42,1.54-2.14,4-2.14,7.25a19,19,0,0,0,1.71,8.43,17.83,17.83,0,0,0,4.63,5.94,22.72,22.72,0,0,0,15.2,5.22q10,0,13.93-7.36a9.91,9.91,0,0,0,1.11-4.47,8,8,0,0,0-1-4,17.18,17.18,0,0,0-2.69-3.45,50.48,50.48,0,0,0-8.47-6.17A21.79,21.79,0,0,0,915.41,520c-3.22,0-5.38.27-6.49.79a11.76,11.76,0,0,0,1-4.75q0-2.37-3.17-5.18a64.28,64.28,0,0,1-5.66-5.66,29.9,29.9,0,0,1-4-5.7,23,23,0,0,1-3-11.4,22.15,22.15,0,0,1,2.49-10.65,23.87,23.87,0,0,1,7-8q9.42-7,24.14-7a48.86,48.86,0,0,1,9.78.64,43.62,43.62,0,0,1,4.23,1.18,15.11,15.11,0,0,0,5.23.79c2.06,0,3.49-.44,4.31-1.34a3.88,3.88,0,0,0,1.23-2.49,5.28,5.28,0,0,0-.24-1.79,5.08,5.08,0,0,1,1.43-.15,5.37,5.37,0,0,1,2.17.55,7.31,7.31,0,0,1,2.18,1.5,6.77,6.77,0,0,1,1.9,4.56,6.09,6.09,0,0,1-1,3.68,7.58,7.58,0,0,1,2.22,5.85,8,8,0,0,1-3.17,6.42,7.79,7.79,0,0,1,.71,3.48,5.34,5.34,0,0,1-2.21,4,6.68,6.68,0,0,1-4.2,1.9q-3.4,0-4.59-.87a14.63,14.63,0,0,0,1-5.5,11,11,0,0,0-1.59-5.67,13.37,13.37,0,0,0-4-4.35,18.79,18.79,0,0,0-10.93-3.17q-8,0-10.76,5.07a7.07,7.07,0,0,0-.87,3.45,10.78,10.78,0,0,0,.51,3.4,11.14,11.14,0,0,0,1.7,3.13,25.53,25.53,0,0,0,6.49,5.85q5.48,3.57,7.6,3.57a14.32,14.32,0,0,0,8-2.22,26.27,26.27,0,0,0-1,5.3q0,2.3,3.64,5.31,10.22,7,13.93,12.9a23.36,23.36,0,0,1,3.56,12.66A22.05,22.05,0,0,1,962,542a28.43,28.43,0,0,1-8.39,8.51q-11,7.37-26.68,7.36A47.06,47.06,0,0,1,907.58,554Zm-2.78-72.51q-2.29,1.11-2.29,6.14a16.23,16.23,0,0,0,3.24,9.57,55.61,55.61,0,0,0,10.3,10.25,3.42,3.42,0,0,1,1.66,2.46,11.05,11.05,0,0,1-.32,2.93,26.34,26.34,0,0,1,3.33-.48q5.78-.56,14.32,5.39,13.62,8.38,13.62,17.65a11.26,11.26,0,0,1-.95,5.22q2.85-.55,4.35-4.83a8.47,8.47,0,0,0,.4-2.61q0-6.4-6.93-13t-19.91-12.78Q904.1,496.43,904.8,481.48Z" transform="translate(-34.88 -367.27)"/><path d="M523.3,608.69a4.05,4.05,0,0,1-2.1.54,3.84,3.84,0,0,1-2.07-.56,3.22,3.22,0,0,1-1.66.56,4.84,4.84,0,0,1-1.25-.13,3,3,0,0,1-.84-.36,1.32,1.32,0,0,1-.77-1.14,1,1,0,0,1,.19-.61,1.55,1.55,0,0,0,1,.3,2.17,2.17,0,0,0,2.16-1.34v-8.58a1.8,1.8,0,0,0-.32-1.17,5.5,5.5,0,0,0-1.82-1.28,4.62,4.62,0,0,0,1.54-1,2.26,2.26,0,0,0,.6-1.54V585a2.17,2.17,0,0,0-2.16-1.35,1.76,1.76,0,0,0-1.1.3,1,1,0,0,1-.19-.61,1.06,1.06,0,0,1,.22-.64,1.78,1.78,0,0,1,.6-.5,3.59,3.59,0,0,1,1.88-.49,3.5,3.5,0,0,1,1.94.57,3.85,3.85,0,0,1,2.09-.57,3.55,3.55,0,0,1,2.15.7,13.57,13.57,0,0,1,4.62-.7,10.3,10.3,0,0,1,2.91.35l1.51.42a2.58,2.58,0,0,0,.54.07c.33,0,.49-.24.49-.7a2.54,2.54,0,0,0-.12-.6,7.08,7.08,0,0,1,1.24-.09,1.81,1.81,0,0,1,1.28.5,1.93,1.93,0,0,1,.53,1.47,2.48,2.48,0,0,1-.39,1.5,3.4,3.4,0,0,1,.53,1.89,2.77,2.77,0,0,1-.7,1.88,3,3,0,0,1,.22,1.13,3,3,0,0,1-.15,1,2.38,2.38,0,0,1-.41.74,1.46,1.46,0,0,1-1.17.6,2.43,2.43,0,0,1-1.17-.3,2.62,2.62,0,0,0,.22-1.13,8.33,8.33,0,0,0-.06-1.1,9.07,9.07,0,0,0-.18-.94,8.7,8.7,0,0,0-.82-2.17,3.85,3.85,0,0,0-3.63-2.16c-2,0-3.47.53-4.28,1.59v8.1a2.15,2.15,0,0,0,1,.31h.77l.59-.06a3.24,3.24,0,0,0,1.14-.28,1.56,1.56,0,0,0,.76-1.58,3.74,3.74,0,0,0-.37-1.85,1.33,1.33,0,0,1,.87-.25,1.77,1.77,0,0,1,1.7,1.21,2.28,2.28,0,0,1,.2.92,3.31,3.31,0,0,1-.21,1.08,3,3,0,0,1,0,3.91,3.21,3.21,0,0,1,.21,1.07,2.21,2.21,0,0,1-.2.92,2.09,2.09,0,0,1-.47.71,1.81,1.81,0,0,1-1.23.49,1.5,1.5,0,0,1-.87-.28,2.8,2.8,0,0,0,.37-1.44c0-1.09-.3-1.76-.9-2a5,5,0,0,0-1.79-.29,3.36,3.36,0,0,0-1.61.31v9.25a2.53,2.53,0,0,0,2.51,1.39,1.55,1.55,0,0,0,1-.3,1,1,0,0,1,.19.6,1.08,1.08,0,0,1-.2.64,1.58,1.58,0,0,1-.57.51,3.44,3.44,0,0,1-1.88.49A4.42,4.42,0,0,1,523.3,608.69Zm-3.68-4.45c.58-.22.91-1,1-2.3s.09-3.12.09-5.43,0-3.85,0-4.61,0-1.39,0-1.85a5.36,5.36,0,0,0-.39-2.5,2,2,0,0,0-.64-.57,56,56,0,0,1-.21,6.94,1.67,1.67,0,0,1-1.19,1c.7.24,1.1.54,1.19.89a45.44,45.44,0,0,1,.21,6.15Z" transform="translate(-34.88 -367.27)"/><path d="M546.71,602.66a14.35,14.35,0,0,1-1.11-4A7.1,7.1,0,0,0,545,596a2.71,2.71,0,0,0-1.21-1.11,3.44,3.44,0,0,0,1.79-3,12.59,12.59,0,0,1,1.24-4.17,11.33,11.33,0,0,1,2.45-3.33,11.51,11.51,0,0,1,15.06-.21,11.82,11.82,0,0,1,3.65,7.85,3.21,3.21,0,0,0,1.79,2.82c-1,.5-1.62,1.56-1.81,3.19a18.36,18.36,0,0,1-1.1,4.55,11.58,11.58,0,0,1-2.21,3.63,10.13,10.13,0,0,1-7.81,3.12,10.28,10.28,0,0,1-7.73-3.12A12.11,12.11,0,0,1,546.71,602.66Zm2.8,1.58a.38.38,0,0,0,.26-.37,3.34,3.34,0,0,0-.37-1.21q-.92-2.11-.92-7.74a21.59,21.59,0,0,1,1-7,2.72,2.72,0,0,0,.12-.66.3.3,0,0,0-.23-.3,6.84,6.84,0,0,0-1.17,2,25.37,25.37,0,0,0-1,5c0,.3-.38.59-1,.86.65.29,1,.59,1,.89q.63,5.43,1.62,7.25A6.6,6.6,0,0,0,549.51,604.24Zm5.29-9.32a3.14,3.14,0,0,0-1.93,3v5.2a3.44,3.44,0,0,0,2.37,3.66,4.75,4.75,0,0,0,3,0,3.34,3.34,0,0,0,1.2-.73,3.9,3.9,0,0,0,1-2.93V598a3.15,3.15,0,0,0-1.89-3,2.94,2.94,0,0,0,1.89-2.82v-4.19a4,4,0,0,0-1.14-3,3.7,3.7,0,0,0-2.65-1,3.48,3.48,0,0,0-3.57,2.24,4.86,4.86,0,0,0-.3,1.79v4.19A2.88,2.88,0,0,0,554.8,594.92Zm7.34-7.94a17.89,17.89,0,0,1,.49,5.06,6.89,6.89,0,0,1-.17,2.23,2.36,2.36,0,0,1-.35.31,3,3,0,0,1-.69.34c.7.31,1.07.62,1.11.91.11,1.14.17,2.13.17,3s0,1.5,0,2-.06,1-.11,1.41a10,10,0,0,1-.35,2c.91-.28,1.42-1.63,1.52-4q.09-2,.09-4.53c0-1.66,0-2.91-.05-3.75s-.09-1.52-.16-2.06a4.65,4.65,0,0,0-.87-2.57A1.13,1.13,0,0,0,562.14,587Z" transform="translate(-34.88 -367.27)"/><path d="M586.53,608.67a4,4,0,0,1-4.07,0,3.16,3.16,0,0,1-1.65.56,4.79,4.79,0,0,1-1.25-.13,3.23,3.23,0,0,1-.86-.36,1.33,1.33,0,0,1-.76-1.14,1,1,0,0,1,.2-.61,1.53,1.53,0,0,0,1,.3,2.15,2.15,0,0,0,2.15-1.34v-8.56a1.78,1.78,0,0,0-.33-1.19,5.28,5.28,0,0,0-1.8-1.28,4.73,4.73,0,0,0,1.54-1,2.3,2.3,0,0,0,.59-1.54V585a2.15,2.15,0,0,0-2.15-1.35,1.53,1.53,0,0,0-1,.3,1,1,0,0,1-.2-.61,1.11,1.11,0,0,1,.21-.64,1.68,1.68,0,0,1,.55-.5,3.46,3.46,0,0,1,1.85-.49,3.42,3.42,0,0,1,1.91.57,3.92,3.92,0,0,1,4.07,0,12.29,12.29,0,0,1,4.39-.75,16,16,0,0,1,4,.44,9.22,9.22,0,0,1,2.8,1.24,7,7,0,0,1,2.94,4.54,2.65,2.65,0,0,0,1.67,2,3.72,3.72,0,0,0-1.79,2.45,5.51,5.51,0,0,1-4.29,4.33,5.24,5.24,0,0,1,2.89,2,5.75,5.75,0,0,1,1.15,3.59v1.75c0,1.68.55,2.77,1.63,3.26a2.57,2.57,0,0,0,1.07.23,1.54,1.54,0,0,0,1-.3,1,1,0,0,1,.19.6,1.21,1.21,0,0,1-.18.64,1.52,1.52,0,0,1-.47.51,2.31,2.31,0,0,1-1.47.49,3.27,3.27,0,0,1-1.65-.46,2.81,2.81,0,0,1-2.75.16,2,2,0,0,1-1,.3,2.44,2.44,0,0,1-1-.24,2.48,2.48,0,0,1-.88-.81,6.68,6.68,0,0,1-.82-3.72v-1.29q0-4-2.32-5.26a3.79,3.79,0,0,0-1.8-.4h-2V606a1.79,1.79,0,0,0,1.8,1.25,1.58,1.58,0,0,0,1-.3,1.34,1.34,0,0,1,.19.77,1.37,1.37,0,0,1-.55,1,2.47,2.47,0,0,1-1.66.48A3.54,3.54,0,0,1,586.53,608.67ZM583,604.24c.58-.22.9-1,1-2.3s.1-3.12.1-5.43,0-3.85,0-4.61,0-1.39,0-1.85a5.45,5.45,0,0,0-.4-2.5A2,2,0,0,0,583,587a58.37,58.37,0,0,1-.21,6.94,1.7,1.7,0,0,1-1.2,1c.7.24,1.1.54,1.2.89A47.39,47.39,0,0,1,583,602Zm8.12-20.36q-3.36,0-3.36,2.61v7.17a1.21,1.21,0,0,0,.72,1.22,5.23,5.23,0,0,0,2,.3,8,8,0,0,0,1.88-.15,2.16,2.16,0,0,0,.92-.52A3.39,3.39,0,0,0,594,592v-5.11a2.64,2.64,0,0,0-1.82-2.81A3.33,3.33,0,0,0,591.08,583.88Zm4,15.56a2.77,2.77,0,0,1,.7,1.92v2.32c0,1.94.39,3,1.16,3.1a1.56,1.56,0,0,0,.61,0,3.75,3.75,0,0,1-.63-2.07v-2.45a3.76,3.76,0,0,0-.38-2C596.05,599.62,595.57,599.34,595,599.44Zm.18-14.44a10.48,10.48,0,0,1,.54,3.93c0,3.09-.14,4.94-.44,5.55.65-.13,1.11-1,1.39-2.58l.14-.71a1.69,1.69,0,0,1,1.12-1.46,1.58,1.58,0,0,1-.88-.54,4.4,4.4,0,0,1-.37-1.25,11.09,11.09,0,0,0-.35-1.43,4.28,4.28,0,0,0-.36-.86A1.25,1.25,0,0,0,595.22,585Z" transform="translate(-34.88 -367.27)"/><path d="M632.68,609.23a3.82,3.82,0,0,1-2-.56,3.19,3.19,0,0,1-1.65.56,4.92,4.92,0,0,1-1.26-.13,3.53,3.53,0,0,1-.86-.36,1.32,1.32,0,0,1-.75-1.14,1,1,0,0,1,.19-.61,1.57,1.57,0,0,0,1,.3,2.17,2.17,0,0,0,2.16-1.34v-8.56a1.92,1.92,0,0,0-.33-1.21,5,5,0,0,0-1.81-1.3,5.11,5.11,0,0,0,1.54-.94,2.28,2.28,0,0,0,.6-1.53V585a2.17,2.17,0,0,0-2.16-1.35,1.57,1.57,0,0,0-1,.3,1,1,0,0,1-.19-.61,1.18,1.18,0,0,1,.2-.64,1.9,1.9,0,0,1,.55-.5,3.48,3.48,0,0,1,1.85-.49,3.43,3.43,0,0,1,1.92.57,3.75,3.75,0,0,1,2-.57,3.61,3.61,0,0,1,2.14.64,10,10,0,0,1,3.87-.82,15.16,15.16,0,0,1,3.51.38,11.61,11.61,0,0,1,2.87,1.06,6.43,6.43,0,0,1,3.47,3.82,3,3,0,0,0,1.66,1.92,4.06,4.06,0,0,0-1.75,2.25,4.85,4.85,0,0,1-3,3.6,5.89,5.89,0,0,1,4.29,4.31,3.4,3.4,0,0,0,1.67,2,3.77,3.77,0,0,0-1.81,2.28,6.65,6.65,0,0,1-1.6,2.74,9.82,9.82,0,0,1-2.67,2,14.42,14.42,0,0,1-6.64,1.51,9.49,9.49,0,0,1-3.94-.79A3.62,3.62,0,0,1,632.68,609.23Zm-1.56-5c.59-.22.91-1,1-2.3s.11-3.12.11-5.43,0-3.85,0-4.61,0-1.39,0-1.85a5.45,5.45,0,0,0-.4-2.5,2,2,0,0,0-.64-.57,56,56,0,0,1-.21,6.94,1.67,1.67,0,0,1-1.19,1c.7.24,1.1.54,1.19.89a45.44,45.44,0,0,1,.21,6.15Zm8-10.5a2.79,2.79,0,0,0,2.19-.73,3.83,3.83,0,0,0,.69-2.59v-4a2.15,2.15,0,0,0-1.13-1.81,3.32,3.32,0,0,0-1.81-.64,3.85,3.85,0,0,0-1.37.2,3.33,3.33,0,0,0-1,.55,2.21,2.21,0,0,0-.89,1.77v7.3Zm-3.27,10.57a2.52,2.52,0,0,0,.92,2,3.28,3.28,0,0,0,2.14.74,3.67,3.67,0,0,0,2-.53,2.88,2.88,0,0,0,1.58-2.36V599a2.86,2.86,0,0,0-1-2.4,3.68,3.68,0,0,0-2.3-.68h-3.34Zm7.14-20a9.82,9.82,0,0,1,.6,3.89,15,15,0,0,1-.49,4.89c.49-.1.9-.57,1.24-1.42a4.79,4.79,0,0,0,.29-1l.16-.82a1.73,1.73,0,0,1,.18-.5,1.66,1.66,0,0,1,1-.66,1.75,1.75,0,0,1-.88-.49,2.67,2.67,0,0,1-.36-1.09,7.87,7.87,0,0,0-.34-1.29A3.79,3.79,0,0,0,644,585,1.45,1.45,0,0,0,643,584.32Zm.71,12.17a13.81,13.81,0,0,1,.42,4.38,21.32,21.32,0,0,1-.32,5.1c.24-.05.5-.34.75-.89a7,7,0,0,0,.55-1.7c.1-.59.17-1,.22-1.19a2.17,2.17,0,0,1,.18-.56,1.06,1.06,0,1,0-.29-2.09,12,12,0,0,0-.36-1.54,4.23,4.23,0,0,0-.37-.86A1.23,1.23,0,0,0,643.74,596.49Z" transform="translate(-34.88 -367.27)"/><path d="M659.63,608.76a2.51,2.51,0,0,1-1.48.47,1.94,1.94,0,0,1-1.33-.43,1.25,1.25,0,0,1-.5-1,1.47,1.47,0,0,1,.17-.82,2.44,2.44,0,0,0,1.25.3,2.34,2.34,0,0,0,1.12-.21,2.65,2.65,0,0,0,.73-.55l2.49-7.37.35-1.21a3.46,3.46,0,0,0,.16-1,1.93,1.93,0,0,0-1.51-2,5.2,5.2,0,0,0,1.95-1.14,6.9,6.9,0,0,0,1.38-2.54l1.93-6.47A1.65,1.65,0,0,0,665,584a3.16,3.16,0,0,0-1.43.33,1.39,1.39,0,0,1-.18-.71,1.71,1.71,0,0,1,.17-.74,2,2,0,0,1,.46-.61,2.85,2.85,0,0,1,1.9-.56,3.09,3.09,0,0,1,2.08.73,3.26,3.26,0,0,1,2.18-.73,3,3,0,0,1,2.08.7,4.2,4.2,0,0,1,2.28-.7,3.16,3.16,0,0,1,1.79.43,1.37,1.37,0,0,1,.64,1.19,1,1,0,0,1-.21.62,1.54,1.54,0,0,0-1-.3c-.78,0-1.29.53-1.52,1.59l2.24,7.17a3.5,3.5,0,0,0,2.1,2.1c.32.14.64.27,1,.39-1.17.38-1.75,1-1.75,1.73a1.86,1.86,0,0,0,.14.77l3.34,9a2.22,2.22,0,0,0,1.56.81,2.15,2.15,0,0,0,1.23-.3.61.61,0,0,1,.19.53,2.08,2.08,0,0,1-.12.71,1.53,1.53,0,0,1-.39.57,2.35,2.35,0,0,1-1.64.52,3.1,3.1,0,0,1-1.9-.6,3.63,3.63,0,0,1-2,.6,3.33,3.33,0,0,1-2-.58,3,3,0,0,1-1.85.58,3.21,3.21,0,0,1-1.77-.45,1.5,1.5,0,0,1-.74-1.27c0-.32.07-.53.2-.61a1.75,1.75,0,0,0,1,.3,2,2,0,0,0,1.45-.42l-1.33-4.47h-9.48l-1.15,3.87a2.07,2.07,0,0,0,1.74,1.11,3.09,3.09,0,0,0,1.53-.3,1.65,1.65,0,0,1,.2.87,1.22,1.22,0,0,1-.55,1,2.28,2.28,0,0,1-1.4.41,3,3,0,0,1-1.58-.44,2.48,2.48,0,0,1-1.44.44A2.14,2.14,0,0,1,659.63,608.76Zm12.8-8.81-4.06-13.51-4,13.51Zm3.35,4.29c.21,0,.31-.24.31-.7a8,8,0,0,0-.36-2.39l-.67-2a14.39,14.39,0,0,1-.7-2.9,1.22,1.22,0,0,1,.86-1.3q-1.22-.24-1.47-.75c-.09-.14-.15-.25-.2-.34a1.3,1.3,0,0,1-.16-.29,4.5,4.5,0,0,1-.19-.42l-.28-.76-1.08-3.27a3.89,3.89,0,0,0-1.14-1.86.89.89,0,0,0-.42-.23q1.17,4.24,1.54,5.43,2.53,7.82,3,9.27Z" transform="translate(-34.88 -367.27)"/><path d="M697.07,609.23a3.8,3.8,0,0,1-2.05-.56,3.22,3.22,0,0,1-1.66.56,4.84,4.84,0,0,1-1.25-.13,3.37,3.37,0,0,1-.86-.36,1.32,1.32,0,0,1-.75-1.14,1,1,0,0,1,.19-.61,1.57,1.57,0,0,0,1,.3,2.17,2.17,0,0,0,2.16-1.34v-8.56a1.73,1.73,0,0,0-.34-1.19,5.28,5.28,0,0,0-1.8-1.28,4.62,4.62,0,0,0,1.54-1,2.26,2.26,0,0,0,.6-1.54V585a2.17,2.17,0,0,0-2.16-1.35,1.57,1.57,0,0,0-1,.3,1,1,0,0,1-.19-.61,1.18,1.18,0,0,1,.2-.64,1.78,1.78,0,0,1,.55-.5,3.62,3.62,0,0,1,3.77.08,3.9,3.9,0,0,1,4.06,0,3.64,3.64,0,0,1,1.79-.57,5.1,5.1,0,0,1,1.3.13,2.73,2.73,0,0,1,.85.36,1.31,1.31,0,0,1,.76,1.13,1,1,0,0,1-.2.62,1.62,1.62,0,0,0-1-.3,2.74,2.74,0,0,0-1.3.34,2.13,2.13,0,0,0-1,1v7.37a1.94,1.94,0,0,0,.37,1.28,5,5,0,0,0,1.77,1.23,5.93,5.93,0,0,0-1.63,1,2.23,2.23,0,0,0-.51,1.44V605a3.37,3.37,0,0,0,2.89,1.84q4.3,0,5.52-3.64a9.43,9.43,0,0,0,.55-3,3.08,3.08,0,0,0-.37-1.8,1.29,1.29,0,0,1,.83-.33,1.94,1.94,0,0,1,.8.17,2.06,2.06,0,0,1,.66.53,2.53,2.53,0,0,1,.62,1.7,5.83,5.83,0,0,1-.16,1.51,2.26,2.26,0,0,1,.8,1.87,2.77,2.77,0,0,1-.68,2,2.24,2.24,0,0,1,.58,1.33,2.88,2.88,0,0,1-.17,1,2.45,2.45,0,0,1-.46.76,2.13,2.13,0,0,1-1.6.68,1.85,1.85,0,0,1-.84-.19,4,4,0,0,0,.07-.77c0-.54-.24-.81-.73-.81a4,4,0,0,0-1.51.44,10,10,0,0,1-4.23.86,9,9,0,0,1-3.7-.61A3.62,3.62,0,0,1,697.07,609.23Zm-1.56-5c.58-.22.9-1,1-2.3s.11-3.12.11-5.43,0-3.85,0-4.61,0-1.39,0-1.85a5.36,5.36,0,0,0-.39-2.5,2,2,0,0,0-.64-.57,56,56,0,0,1-.21,6.94,1.69,1.69,0,0,1-1.19,1c.7.24,1.1.54,1.19.89a45.44,45.44,0,0,1,.21,6.15Z" transform="translate(-34.88 -367.27)"/><path d="M726.84,609.23a3.77,3.77,0,0,1-2.05-.56,3.22,3.22,0,0,1-1.66.56,4.84,4.84,0,0,1-1.25-.13,3.23,3.23,0,0,1-.86-.36,1.32,1.32,0,0,1-.75-1.14,1,1,0,0,1,.19-.61,1.55,1.55,0,0,0,1,.3,2.15,2.15,0,0,0,2.15-1.34v-8.56a1.78,1.78,0,0,0-.33-1.19,5.28,5.28,0,0,0-1.8-1.28,4.62,4.62,0,0,0,1.54-1,2.25,2.25,0,0,0,.59-1.54V585a2.15,2.15,0,0,0-2.15-1.35,1.55,1.55,0,0,0-1,.3,1,1,0,0,1-.19-.61,1.1,1.1,0,0,1,.2-.64,1.78,1.78,0,0,1,.55-.5,3.62,3.62,0,0,1,3.77.08,3.82,3.82,0,0,1,2.08-.57,3.59,3.59,0,0,1,2.14.68,12.3,12.3,0,0,1,4.29-.68,11.51,11.51,0,0,1,3.08.35l1.56.42a2.67,2.67,0,0,0,.55.07c.32,0,.49-.24.49-.7a2.23,2.23,0,0,0-.13-.6,7.21,7.21,0,0,1,1.25-.09,1.81,1.81,0,0,1,1.28.5,1.88,1.88,0,0,1,.52,1.44,2.28,2.28,0,0,1-.33,1.37,3,3,0,0,1,.47,1.71,2.31,2.31,0,0,1-.68,1.69,2.75,2.75,0,0,1,.21,1,2.46,2.46,0,0,1-.17.91,2.57,2.57,0,0,1-.41.69,1.41,1.41,0,0,1-1,.51,2.81,2.81,0,0,1-1.33-.32,2.85,2.85,0,0,0,.21-1.24,6,6,0,0,0-1-3.38,4.41,4.41,0,0,0-3.94-2,4.61,4.61,0,0,0-2.41.65A3.46,3.46,0,0,0,730,586.6v6.78a2.23,2.23,0,0,0,1.15.38l.81,0a3.6,3.6,0,0,0,.55-.07,4.13,4.13,0,0,0,1.1-.28c.49-.23.74-.8.74-1.71a1.76,1.76,0,0,0-.37-1.19,1.42,1.42,0,0,1,.87-.25,1.78,1.78,0,0,1,1.7,1,1.4,1.4,0,0,1,.2.73,3.14,3.14,0,0,1-.21,1,3,3,0,0,1,0,3.91,3.21,3.21,0,0,1,.21,1.07,2.21,2.21,0,0,1-.2.92,2,2,0,0,1-.47.7,1.78,1.78,0,0,1-1.23.5,1.5,1.5,0,0,1-.87-.28,2.8,2.8,0,0,0,.37-1.44c0-1.09-.3-1.76-.9-2a4.78,4.78,0,0,0-1.8-.31,3.2,3.2,0,0,0-1.65.37v8.76c.68,1.19,2,1.78,3.93,1.78,2.19,0,3.69-.67,4.48-2a9.63,9.63,0,0,0,1.38-5,3.71,3.71,0,0,0-.14-1.19,1.33,1.33,0,0,1,.92-.44,1.5,1.5,0,0,1,.71.13,2.07,2.07,0,0,1,.44.32,1.47,1.47,0,0,1,.42,1l-.1.86a.85.85,0,0,0,.17.54,1,1,0,0,1,.35.69,1.9,1.9,0,0,1-.21.78,2.33,2.33,0,0,1,.73.68,1.49,1.49,0,0,1,.32.91,2.39,2.39,0,0,1-.84,1.79,2.61,2.61,0,0,1,.37,1.52,2.55,2.55,0,0,1-.57,1.68,1.83,1.83,0,0,1-1.48.69,5,5,0,0,1-1-.1,5.09,5.09,0,0,0,.06-.77c0-.54-.24-.81-.73-.81a4.41,4.41,0,0,0-1.65.33,11.57,11.57,0,0,1-4.42.79,12.09,12.09,0,0,1-4.21-.65A3.6,3.6,0,0,1,726.84,609.23Zm-1.56-5c.58-.22.9-1,1-2.3s.1-3.12.1-5.43V591.9c0-.77,0-1.39,0-1.85a5.5,5.5,0,0,0-.39-2.5,2.11,2.11,0,0,0-.64-.57,56,56,0,0,1-.21,6.94,1.68,1.68,0,0,1-1.2,1c.71.24,1.1.54,1.2.89a45.44,45.44,0,0,1,.21,6.15Zm4.41-.18a.2.2,0,0,0,0,.09Z" transform="translate(-34.88 -367.27)"/><path d="M756.46,608.2a3.94,3.94,0,0,1-2.66,1.4,1.09,1.09,0,0,1-1.09-.6,2.24,2.24,0,0,0,.41-1.47v-.26a1,1,0,0,0,0-.19,2.43,2.43,0,0,1-.88-1.87,3.33,3.33,0,0,1,1-2.2,2.79,2.79,0,0,1-.3-1.27,4,4,0,0,1,.2-1.26,3.55,3.55,0,0,1,.55-1,2,2,0,0,1,1.45-1,1.06,1.06,0,0,1,1,.56,3,3,0,0,0-.63,2.09,6.66,6.66,0,0,0,.41,2.47,5.12,5.12,0,0,0,1.16,1.8,5.52,5.52,0,0,0,4.12,1.65,4.35,4.35,0,0,0,2.86-1,3.44,3.44,0,0,0,1.26-2.82,3.3,3.3,0,0,0-.6-2,12.86,12.86,0,0,0-2.91-2.59,4.74,4.74,0,0,0-2.43-1.07,3.72,3.72,0,0,0-2,.76,5.27,5.27,0,0,0,.3-1.67c0-.11-.11-.27-.34-.45l-.64-.58q-3.07-2.82-3.63-5.24a9.56,9.56,0,0,1-.19-2.11,5.88,5.88,0,0,1,.62-2.58,6.39,6.39,0,0,1,1.71-2.21,8.5,8.5,0,0,1,5.74-1.93,10.81,10.81,0,0,1,3.89.68,4.63,4.63,0,0,0,1.72.3,5.44,5.44,0,0,0,.73,0,.86.86,0,0,0,.56-.36,1,1,0,0,0,.23-.6,1.16,1.16,0,0,0-.07-.44,1,1,0,0,1,.83.1,1.8,1.8,0,0,1,.47.41,2.15,2.15,0,0,1,.47,1.34,1.44,1.44,0,0,1-.42,1.13,2.06,2.06,0,0,1,.6,1.63,2.47,2.47,0,0,1-.74,1.82,3.19,3.19,0,0,1,.14.85,1.92,1.92,0,0,1-.13.72,1.83,1.83,0,0,1-.36.59,1.4,1.4,0,0,1-1,.54,2.75,2.75,0,0,1-1.21-.24,3.8,3.8,0,0,0,.3-1.51,4.25,4.25,0,0,0-.36-1.66,4.58,4.58,0,0,0-1-1.48A5,5,0,0,0,762,584a3.16,3.16,0,0,0-2.3.86,2.57,2.57,0,0,0-.84,1.94,2.4,2.4,0,0,0,.42,1.44,9.43,9.43,0,0,0,2.33,2.06l.84.57a2.4,2.4,0,0,0,.95.43,2.09,2.09,0,0,0,.49-.05,5.44,5.44,0,0,0,.54-.14,5.37,5.37,0,0,0,1.23-.6l-.23,1a3.86,3.86,0,0,0-.11.71.87.87,0,0,0,.37.67,20.63,20.63,0,0,1,4.38,4.75,7.06,7.06,0,0,1,1,3.59,7.79,7.79,0,0,1-.64,3.31,7.33,7.33,0,0,1-1.83,2.45,10,10,0,0,1-6.92,2.39A10.75,10.75,0,0,1,756.46,608.2ZM755.27,587c-.44.19-.66.67-.66,1.46,0,1.6,1.06,3.35,3.2,5.27l1.05.94c.36.33.52.58.48.76s-.07.31-.1.42-.06.2-.1.3-.06.16-.07.21a2.06,2.06,0,0,1,1-.37,2.77,2.77,0,0,1,1.46.42,16.92,16.92,0,0,1,4.59,3.75,5.24,5.24,0,0,1,.91,3,5.56,5.56,0,0,1-.09,1.09,2.09,2.09,0,0,0,.93-1.89,4.58,4.58,0,0,0-.34-2,6.59,6.59,0,0,0-.8-1.22,13.11,13.11,0,0,0-1.18-1.16,21.9,21.9,0,0,0-1.8-1.37l-2.49-1.7a17.24,17.24,0,0,1-4.66-4.25A6.1,6.1,0,0,1,755.27,587Z" transform="translate(-34.88 -367.27)"/></svg>